<svg width="133" height="40" viewBox="0 0 133 40" fill="none" xmlns="http://www.w3.org/2000/svg">
<path d="M4.48 30C4.39467 30 4.352 29.9467 4.352 29.84V11.6H0.192C0.0853333 11.6 0.032 11.5467 0.032 11.44L0.064 7.856C0.064 7.77067 0.106667 7.728 0.192 7.728H12.352C12.4587 7.728 12.512 7.77067 12.512 7.856V11.44C12.512 11.5467 12.4693 11.6 12.384 11.6H8.192L8.224 29.84C8.224 29.9467 8.18133 30 8.096 30H4.48ZM20.2538 30.32C19.1018 30.32 18.0458 30.032 17.0858 29.456C16.1471 28.8587 15.3898 28.08 14.8138 27.12C14.2378 26.1387 13.9498 25.0613 13.9498 23.888L13.9818 13.744C13.9818 12.5707 14.2591 11.504 14.8138 10.544C15.3898 9.584 16.1578 8.816 17.1178 8.24C18.0778 7.664 19.1231 7.376 20.2538 7.376C21.4058 7.376 22.4511 7.664 23.3898 8.24C24.3284 8.816 25.0751 9.584 25.6298 10.544C26.2058 11.504 26.4938 12.5707 26.4938 13.744L26.5258 23.888C26.5258 25.0613 26.2378 26.1387 25.6618 27.12C25.1071 28.08 24.3498 28.8587 23.3898 29.456C22.4511 30.032 21.4058 30.32 20.2538 30.32ZM20.2538 26.448C20.8938 26.448 21.4484 26.192 21.9178 25.68C22.4084 25.1467 22.6538 24.5493 22.6538 23.888L22.6218 13.744C22.6218 13.04 22.3978 12.4427 21.9498 11.952C21.5018 11.4613 20.9364 11.216 20.2538 11.216C19.5924 11.216 19.0271 11.4613 18.5578 11.952C18.0884 12.4213 17.8538 13.0187 17.8538 13.744V23.888C17.8538 24.592 18.0884 25.2 18.5578 25.712C19.0271 26.2027 19.5924 26.448 20.2538 26.448ZM35.9943 30.32C34.8636 30.32 33.8183 30.032 32.8583 29.456C31.8983 28.8587 31.1303 28.0693 30.5543 27.088C29.9996 26.1067 29.7223 25.0293 29.7223 23.856L29.7863 7.856C29.7863 7.77067 29.8289 7.728 29.9143 7.728H33.4983C33.5836 7.728 33.6263 7.77067 33.6263 7.856V23.856C33.6263 24.5813 33.8503 25.2 34.2983 25.712C34.7676 26.2027 35.3329 26.448 35.9943 26.448C36.6769 26.448 37.2423 26.2027 37.6903 25.712C38.1596 25.2 38.3943 24.5813 38.3943 23.856V7.856C38.3943 7.77067 38.4369 7.728 38.5223 7.728H42.1063C42.1916 7.728 42.2343 7.77067 42.2343 7.856L42.2983 23.856C42.2983 25.0507 42.0103 26.1387 41.4343 27.12C40.8796 28.1013 40.1223 28.88 39.1623 29.456C38.2236 30.032 37.1676 30.32 35.9943 30.32ZM45.913 30C45.8277 30 45.785 29.9467 45.785 29.84L45.849 7.856C45.849 7.77067 45.8917 7.728 45.977 7.728H52.441C53.593 7.728 54.649 8.016 55.609 8.592C56.5903 9.14667 57.369 9.904 57.945 10.864C58.521 11.8027 58.809 12.8693 58.809 14.064C58.809 14.8533 58.6917 15.568 58.457 16.208C58.2223 16.8267 57.945 17.36 57.625 17.808C57.305 18.2347 57.017 18.5547 56.761 18.768C57.913 20.048 58.489 21.552 58.489 23.28L58.521 29.84C58.521 29.9467 58.4677 30 58.361 30H54.745C54.6597 30 54.617 29.968 54.617 29.904V23.28C54.617 22.512 54.3397 21.8507 53.785 21.296C53.2517 20.72 52.5903 20.432 51.801 20.432H49.689L49.657 29.84C49.657 29.9467 49.6143 30 49.529 30H45.913ZM49.689 16.592H52.441C53.1023 16.592 53.689 16.3467 54.201 15.856C54.713 15.3653 54.969 14.768 54.969 14.064C54.969 13.3813 54.713 12.7947 54.201 12.304C53.7103 11.8133 53.1237 11.568 52.441 11.568H49.689V16.592ZM62.3105 30C62.2252 30 62.1825 29.9467 62.1825 29.84L62.2465 7.856C62.2465 7.77067 62.2892 7.728 62.3745 7.728H66.2785C66.3638 7.728 66.4385 7.77067 66.5025 7.856L69.4145 12.08L72.3265 7.856C72.3905 7.77067 72.4652 7.728 72.5505 7.728H76.4865C76.5718 7.728 76.6145 7.77067 76.6145 7.856L76.6785 29.84C76.6785 29.9467 76.6358 30 76.5505 30H72.9345C72.8492 30 72.8065 29.9467 72.8065 29.84L72.7745 13.52L69.4145 18.384L66.0865 13.52L66.0545 29.84C66.0545 29.9467 66.0118 30 65.9265 30H62.3105ZM79.242 29.84L83.21 7.856C83.2313 7.77067 83.2847 7.728 83.37 7.728H88.01C88.0953 7.728 88.1487 7.77067 88.17 7.856L91.978 29.84C91.9993 29.9467 91.9567 30 91.85 30H88.298C88.2127 30 88.1593 29.9467 88.138 29.84L87.786 27.504H83.434L83.082 29.84C83.0607 29.9467 83.0073 30 82.922 30H79.37C79.2847 30 79.242 29.9467 79.242 29.84ZM84.074 24.08H87.146L85.834 15.088L85.642 13.904L85.514 15.088L84.074 24.08ZM95.1063 30C94.9996 30 94.9463 29.9467 94.9463 29.84L95.0103 7.856C95.0103 7.77067 95.0529 7.728 95.1383 7.728H101.282C103.245 7.728 104.792 8.32533 105.922 9.52C107.074 10.7147 107.65 12.336 107.65 14.384C107.65 15.8987 107.352 17.2107 106.754 18.32C106.157 19.4293 105.378 20.2827 104.418 20.88C103.458 21.4773 102.413 21.776 101.282 21.776H98.8503V29.84C98.8503 29.9467 98.7969 30 98.6903 30H95.1063ZM98.8503 17.904H101.282C101.965 17.904 102.552 17.584 103.042 16.944C103.554 16.2827 103.81 15.4293 103.81 14.384C103.81 13.552 103.586 12.8693 103.138 12.336C102.69 11.8027 102.072 11.536 101.282 11.536L98.8503 11.568V17.904Z" fill="#FFA500"/>
<circle cx="122" cy="19" r="11" fill="white"/>
<path d="M122 8C115.925 8 111 12.9249 111 19C111 25.0751 115.925 30 122 30C128.075 30 133 25.0751 133 19C133 12.9249 128.075 8 122 8ZM122 11.7262C125.028 11.7262 127.484 14.1817 127.484 17.2101C127.484 18.1274 127.233 19.3384 126.716 20.0232L122 26.2738L117.284 20.0232C116.715 19.2693 116.516 18.2229 116.516 17.2101C116.516 14.1817 118.972 11.7262 122 11.7262ZM122 14.9032C120.726 14.9032 119.693 15.9359 119.693 17.2101C119.693 18.4843 120.726 19.517 122 19.517C123.274 19.517 124.307 18.4843 124.307 17.2101C124.307 15.9359 123.274 14.9032 122 14.9032Z" fill="#4E9258"/>
</svg>
