<svg width="150" height="150" viewBox="0 0 150 150" fill="none" xmlns="http://www.w3.org/2000/svg">
<path d="M62.5 137.5V112.5C62.5 109.185 63.817 106.005 66.1612 103.661C68.5054 101.317 71.6848 100 75 100C78.3152 100 81.4946 101.317 83.8388 103.661C86.183 106.005 87.5 109.185 87.5 112.5V137.5H112.5V75C112.5 73.9215 112.221 72.8615 111.689 71.9229C111.158 70.9843 110.393 70.1992 109.469 69.6437L81.25 52.7125V37.5H93.75V25H81.25V12.5H68.75V25H56.25V37.5H68.75V52.7125L40.5313 69.6437C39.6068 70.1992 38.8418 70.9843 38.3106 71.9229C37.7795 72.8615 37.5002 73.9215 37.5 75V137.5H62.5ZM18.75 137.5H31.25V86.7625L15.9563 94.4125C14.9173 94.93 14.0434 95.7272 13.4328 96.7143C12.8222 97.7014 12.4992 98.8393 12.5 100V131.25C12.5 132.908 13.1585 134.497 14.3306 135.669C15.5027 136.842 17.0924 137.5 18.75 137.5ZM134.044 94.4062L118.75 86.7625V137.5H131.25C132.908 137.5 134.497 136.842 135.669 135.669C136.842 134.497 137.5 132.908 137.5 131.25V100C137.5 97.6312 136.162 95.4687 134.044 94.4062Z" fill="#FFA500"/>
</svg>
