<svg width="150" height="150" viewBox="0 0 150 150" fill="none" xmlns="http://www.w3.org/2000/svg">
<path d="M112.5 76.375V56.25L81.25 40.625V31.25H93.75V18.75H81.25V6.25H68.75V18.75H56.25V31.25H68.75V40.625L37.5 56.25V76.375L12.5 87.5V137.5H62.5V118.75C62.5 111.875 68.125 106.25 75 106.25C81.875 106.25 87.5 111.875 87.5 118.75V137.5H137.5V87.5L112.5 76.375ZM75 84.375C69.8125 84.375 65.625 80.1875 65.625 75C65.625 69.8125 69.8125 65.625 75 65.625C80.1875 65.625 84.375 69.8125 84.375 75C84.375 80.1875 80.1875 84.375 75 84.375Z" fill="#FFA500"/>
</svg>
