<svg width="150" height="150" viewBox="0 0 150 150" fill="none" xmlns="http://www.w3.org/2000/svg">
<mask id="mask0_77_142" style="mask-type:alpha" maskUnits="userSpaceOnUse" x="6" y="6" width="138" height="138">
<path d="M75 12.5V50M62.5 25H87.5" stroke="white" stroke-width="12.5" stroke-linecap="round"/>
<path d="M46.875 87.5H28.125C26.4674 87.5 24.8777 88.1585 23.7056 89.3306C22.5335 90.5027 21.875 92.0924 21.875 93.75V137.5M103.125 87.5H121.875C123.533 87.5 125.122 88.1585 126.294 89.3306C127.467 90.5027 128.125 92.0924 128.125 93.75V137.5" stroke="white" stroke-width="12.5" stroke-linejoin="round"/>
<path d="M12.5 137.5H137.5" stroke="white" stroke-width="12.5" stroke-linecap="round"/>
<path d="M46.875 71.875L75 46.875L103.125 71.875V137.5H46.875V71.875Z" fill="#555555" stroke="white" stroke-width="12.5" stroke-linecap="round" stroke-linejoin="round"/>
<path d="M75 106.25V137.5M62.5 137.5H87.5" stroke="white" stroke-width="12.5" stroke-linecap="round"/>
</mask>
<g mask="url(#mask0_77_142)">
<path fill-rule="evenodd" clip-rule="evenodd" d="M150 0H0V150H150V0ZM75 101C71.134 101 68 104.134 68 108V131H82V108C82 104.134 78.866 101 75 101Z" fill="#4E9258"/>
</g>
</svg>
