<svg width="150" height="140" viewBox="0 0 150 140" fill="none" xmlns="http://www.w3.org/2000/svg">
<g clip-path="url(#clip0_77_176)">
<path d="M72.4639 55.2751V49.478H75.3625V55.2751H81.1596V58.1737H75.3625V64.5795L94.9219 75.7563L93.4842 78.2722L89.8552 76.2027V90.0577H95.6523V92.9563H81.1596V78.4635H66.6668V92.9563H52.1741V90.0577H57.9712V76.1998L54.3422 78.2722L52.9045 75.7563L72.4639 64.5795V58.1737H66.6668V55.2751H72.4639Z" fill="#4E9258"/>
<path d="M69.5654 92.9565H78.261V81.3623H69.5654V92.9565Z" fill="#4E9258"/>
</g>
<g clip-path="url(#clip1_77_176)">
<path d="M126.812 5.7971V0H129.71V5.7971H135.507V8.69565H129.71V15.1015L149.27 26.2783L147.832 28.7942L144.203 26.7246V40.5797H150V43.4783H135.507V28.9855H121.014V43.4783H106.522V40.5797H112.319V26.7217L108.69 28.7942L107.252 26.2783L126.812 15.1015V8.69565H121.014V5.7971H126.812Z" fill="#4E9258"/>
<path d="M123.913 43.4785H132.609V31.8843H123.913V43.4785Z" fill="#4E9258"/>
</g>
<g clip-path="url(#clip2_77_176)">
<path d="M20.2899 5.7971V0H23.1884V5.7971H28.9855V8.69565H23.1884V15.1015L42.7478 26.2783L41.3102 28.7942L37.6812 26.7246V40.5797H43.4783V43.4783H28.9855V28.9855H14.4928V43.4783H0V40.5797H5.7971V26.7217L2.16812 28.7942L0.730435 26.2783L20.2899 15.1015V8.69565H14.4928V5.7971H20.2899Z" fill="#4E9258"/>
<path d="M17.3913 43.4785H26.087V31.8843H17.3913V43.4785Z" fill="#4E9258"/>
</g>
<g clip-path="url(#clip3_77_176)">
<path d="M20.2899 101.45V95.6528H23.1884V101.45H28.9855V104.348H23.1884V110.754L42.7478 121.931L41.3102 124.447L37.6812 122.377V136.233H43.4783V139.131H28.9855V124.638H14.4928V139.131H0V136.233H5.7971V122.375L2.16812 124.447L0.730435 121.931L20.2899 110.754V104.348H14.4928V101.45H20.2899Z" fill="#4E9258"/>
<path d="M17.3913 139.131H26.087V127.537H17.3913V139.131Z" fill="#4E9258"/>
</g>
<g clip-path="url(#clip4_77_176)">
<path d="M126.812 101.45V95.6528H129.71V101.45H135.507V104.348H129.71V110.754L149.27 121.931L147.832 124.447L144.203 122.377V136.233H150V139.131H135.507V124.638H121.014V139.131H106.522V136.233H112.319V122.375L108.69 124.447L107.252 121.931L126.812 110.754V104.348H121.014V101.45H126.812Z" fill="#4E9258"/>
<path d="M123.913 139.131H132.609V127.537H123.913V139.131Z" fill="#4E9258"/>
</g>
<defs>
<clipPath id="clip0_77_176">
<rect width="43.4783" height="43.4783" fill="white" transform="translate(52.1741 49.478)"/>
</clipPath>
<clipPath id="clip1_77_176">
<rect width="43.4783" height="43.4783" fill="white" transform="translate(106.522)"/>
</clipPath>
<clipPath id="clip2_77_176">
<rect width="43.4783" height="43.4783" fill="white"/>
</clipPath>
<clipPath id="clip3_77_176">
<rect width="43.4783" height="43.4783" fill="white" transform="translate(0 95.6528)"/>
</clipPath>
<clipPath id="clip4_77_176">
<rect width="43.4783" height="43.4783" fill="white" transform="translate(106.522 95.6528)"/>
</clipPath>
</defs>
</svg>
