<svg width="150" height="150" viewBox="0 0 150 150" fill="none" xmlns="http://www.w3.org/2000/svg">
<path d="M37.5 31.25H112.5C114.158 31.25 115.747 31.9085 116.919 33.0806C118.092 34.2527 118.75 35.8424 118.75 37.5C118.75 39.1576 118.092 40.7473 116.919 41.9194C115.747 43.0915 114.158 43.75 112.5 43.75H37.5C35.8424 43.75 34.2527 43.0915 33.0806 41.9194C31.9085 40.7473 31.25 39.1576 31.25 37.5C31.25 35.8424 31.9085 34.2527 33.0806 33.0806C34.2527 31.9085 35.8424 31.25 37.5 31.25ZM131.25 12.5V25H18.75V12.5H131.25ZM93.75 50H106.25V137.5H93.75V50ZM43.75 50H56.25V137.5H43.75V50ZM68.75 50H81.25V137.5H68.75V50Z" fill="#FFA500"/>
</svg>
